<svg version="1.1" id="Layer_1" xmlns="http://www.w3.org/2000/svg" xmlns:xlink="http://www.w3.org/1999/xlink" x="0px" y="0px"
	 width="100%" viewBox="0 0 768 768" enable-background="new 0 0 768 768" xml:space="preserve">
<path fill="#F3F3F3" opacity="1.000000" stroke="none" 
	d="
M769.000000,299.000000 
	C769.000000,456.000000 769.000000,612.500000 769.000000,769.000000 
	C513.000000,769.000000 257.000000,769.000000 1.000000,769.000000 
	C1.000000,513.000000 1.000000,257.000000 1.000000,1.000000 
	C257.000000,1.000000 513.000000,1.000000 769.000000,1.000000 
	C769.000000,100.166664 769.000000,199.333328 769.000000,299.000000 
M274.500031,34.288979 
	C194.579987,34.288979 114.659927,34.288979 34.666126,34.288979 
	C34.666126,145.807648 34.666126,256.821259 34.666126,367.922607 
	C145.928925,367.922607 256.814301,367.922607 367.793091,367.922607 
	C367.793091,256.652496 367.793091,145.666733 367.793091,34.289188 
	C336.754211,34.289188 306.127136,34.289188 274.500031,34.288979 
M401.800232,706.500000 
	C401.800232,716.091919 401.800232,725.683838 401.800232,735.723511 
	C404.343689,735.723511 406.142395,735.723511 407.941101,735.723511 
	C515.075378,735.723511 622.209656,735.690735 729.343750,735.828674 
	C734.257629,735.834961 735.852661,734.796936 735.844788,729.555786 
	C735.683350,622.255188 735.723511,514.954224 735.723511,407.653351 
	C735.723511,405.873291 735.723511,404.093262 735.723511,402.216309 
	C624.082275,402.216309 513.078491,402.216309 401.800110,402.216309 
	C401.800110,503.588043 401.800110,604.544006 401.800232,706.500000 
M120.499947,735.718323 
	C202.929535,735.718323 285.359131,735.718323 367.899170,735.718323 
	C367.899170,624.105347 367.899170,513.197937 367.899170,402.083984 
	C256.692200,402.083984 145.785690,402.083984 34.659534,402.083984 
	C34.659534,513.413452 34.659534,624.459045 34.659534,735.718140 
	C63.191402,735.718140 91.345673,735.718140 120.499947,735.718323 
M735.707581,233.500061 
	C735.707581,169.018829 735.660034,104.537498 735.807861,40.056610 
	C735.818420,35.445267 734.584595,34.186783 729.954407,34.192543 
	C625.484863,34.322536 521.015076,34.292511 416.545319,34.292603 
	C411.780182,34.292606 407.015076,34.292606 402.069031,34.292606 
	C402.069031,145.938400 402.069031,256.818176 402.069031,367.792236 
	C513.338684,367.792236 624.331970,367.792236 735.707336,367.792236 
	C735.707336,323.085907 735.707336,278.792999 735.707581,233.500061 
z"/>
<path fill="#F35325" opacity="1.000000" stroke="none" 
	d="
M275.000061,34.289085 
	C306.127136,34.289188 336.754211,34.289188 367.793091,34.289188 
	C367.793091,145.666733 367.793091,256.652496 367.793091,367.922607 
	C256.814301,367.922607 145.928925,367.922607 34.666126,367.922607 
	C34.666126,256.821259 34.666126,145.807648 34.666126,34.288979 
	C114.659927,34.288979 194.579987,34.288979 275.000061,34.289085 
z"/>
<path fill="#FFBA08" opacity="1.000000" stroke="none" 
	d="
M401.800171,706.000000 
	C401.800110,604.544006 401.800110,503.588043 401.800110,402.216309 
	C513.078491,402.216309 624.082275,402.216309 735.723511,402.216309 
	C735.723511,404.093262 735.723511,405.873291 735.723511,407.653351 
	C735.723511,514.954224 735.683350,622.255188 735.844788,729.555786 
	C735.852661,734.796936 734.257629,735.834961 729.343750,735.828674 
	C622.209656,735.690735 515.075378,735.723511 407.941101,735.723511 
	C406.142395,735.723511 404.343689,735.723511 401.800232,735.723511 
	C401.800232,725.683838 401.800232,716.091919 401.800171,706.000000 
z"/>
<path fill="#05A6F0" opacity="1.000000" stroke="none" 
	d="
M119.999939,735.718262 
	C91.345673,735.718140 63.191402,735.718140 34.659534,735.718140 
	C34.659534,624.459045 34.659534,513.413452 34.659534,402.083984 
	C145.785690,402.083984 256.692200,402.083984 367.899170,402.083984 
	C367.899170,513.197937 367.899170,624.105347 367.899170,735.718323 
	C285.359131,735.718323 202.929535,735.718323 119.999939,735.718262 
z"/>
<path fill="#81BC06" opacity="1.000000" stroke="none" 
	d="
M735.707458,234.000061 
	C735.707336,278.792999 735.707336,323.085907 735.707336,367.792236 
	C624.331970,367.792236 513.338684,367.792236 402.069031,367.792236 
	C402.069031,256.818176 402.069031,145.938400 402.069031,34.292606 
	C407.015076,34.292606 411.780182,34.292606 416.545319,34.292603 
	C521.015076,34.292511 625.484863,34.322536 729.954407,34.192543 
	C734.584595,34.186783 735.818420,35.445267 735.807861,40.056610 
	C735.660034,104.537498 735.707581,169.018829 735.707458,234.000061 
z"/>
</svg>